# xmcd
# 
# Track frame offsets:
#     183
#     32725
#     80313
#     106590
#     126568
#     139815
#     158650
#     185835
#     206773
#     233153
#     255288
#     273925
#     297160
#     316450
#     332788
# 
# Disc length: 4670
# 
# Revision: 10
# Processed by: cddbd v1.5.2PL0 Copyright (c) Steve Scherf et al.
# Submitted via: fre:ac v1.0.31
# 
DISCID=d5123c0f
DTITLE=Deep Purple - Shades 1968-1998 Disc 3
DYEAR=1999
DGENRE=Rock/Pop
TTITLE0=Smoke On The Water (Live, 1972)
TTITLE1=Lazy (Live, 1972)
TTITLE2=Woman From Tokyo
TTITLE3=Mary Long
TTITLE4=Super Trouper
TTITLE5=Smooth Dancer
TTITLE6=Burn
TTITLE7=Might Just Take Your Life
TTITLE8=Sail Away
TTITLE9=Coronarias Redig
TTITLE10=Stormbringer
TTITLE11=Hold On
TTITLE12=Lady Double Dealer (Live, 1975)
TTITLE13=Gettin' Tighter
TTITLE14=Comin' Home
EXTD=
EXTT0=
EXTT1=
EXTT2=
EXTT3=
EXTT4=
EXTT5=
EXTT6=
EXTT7=
EXTT8=
EXTT9=
EXTT10=
EXTT11=
EXTT12=
EXTT13=
EXTT14=
PLAYORDER=
